<?xml version="1.0" encoding="UTF-8"?>
<svg version="1.1" xmlns="http://www.w3.org/2000/svg" width="500" height="500">
<path d="M0 0 C165 0 330 0 500 0 C500 165 500 330 500 500 C335 500 170 500 0 500 C0 335 0 170 0 0 Z " fill="#FEFEFE" transform="translate(0,0)"/>
<path d="M0 0 C1.04674391 6.54214942 1.04674391 6.54214942 0.6953125 9.984375 C0.6855946 13.18561174 0.6855946 13.18561174 3.3359375 15.1953125 C4.33882813 15.83210938 5.34171875 16.46890625 6.375 17.125 C13.00920944 21.39352235 13.00920944 21.39352235 14 25 C13.72763556 29.62400545 12.33229481 32.52326304 9.75 36.3125 C7.42342896 39.82874035 5.14903046 43.33511986 3.0625 47 C2.66160156 47.70125 2.26070313 48.4025 1.84765625 49.125 C0.79402863 51.11265419 0.79402863 51.11265419 1 54 C4.13546882 54.32244183 5.65167985 54.21798844 8.359375 52.5234375 C18.413427 43.48793325 24.57484419 32.51323946 30.26220703 20.41772461 C32.11518261 16.52013755 34.03799862 13.15632752 37 10 C40.125 9.0625 40.125 9.0625 43 9 C45 11 45 11 45.35546875 13.74609375 C44.918039 17.75025835 43.57823679 19.7497499 41.3125 23.0625 C35.89472267 31.30141111 30.7695048 41.17028822 30.9375 51.25 C30.958125 52.4875 30.97875 53.725 31 55 C35.49069074 53.77526616 37.84373538 52.3817121 41 49 C41.66 49 42.32 49 43 49 C43.25910156 48.43796875 43.51820313 47.8759375 43.78515625 47.296875 C45.13111148 44.75211077 46.72484859 42.56300018 48.4375 40.25 C52.14046094 35.00158842 54.06663893 30.19826019 55.8515625 24.08203125 C57.78189291 17.76529962 59.59618492 12.14959627 65 8 C68.1875 6.875 68.1875 6.875 71 7 C72.875 8 72.875 8 74 10 C74.74738849 16.48831763 72.63527212 20.24628077 69.4375 25.625 C66.01301175 30.96310225 66.01301175 30.96310225 65.22265625 37.0234375 C65.60744141 38.00183594 65.60744141 38.00183594 66 39 C69.56530856 40.29647584 70.88456879 40.05059998 74.421875 38.5 C78.66347136 35.94958496 80.24239828 32.674798 82.1875 28.25 C82.82682292 26.88020833 83.46614583 25.51041667 84.10546875 24.140625 C84.41532715 23.46193359 84.72518555 22.78324219 85.04443359 22.08398438 C86.02871298 19.93738018 87.0255362 17.79924631 88.05078125 15.671875 C88.35282471 15.03862305 88.65486816 14.40537109 88.96606445 13.75292969 C90.115933 11.80344771 91.24326522 10.42941535 93 9 C97.42105263 9.42105263 97.42105263 9.42105263 99 11 C98.66010897 17.37295673 96.22009529 22.42374765 93.5 28.125 C92.67224732 29.87532532 91.84916504 31.62786857 91.03125 33.3828125 C90.66580078 34.14996582 90.30035156 34.91711914 89.92382812 35.70751953 C88.37805355 39.54336077 87.86779036 43.19963115 87.9375 47.3125 C87.9684375 49.1378125 87.9684375 49.1378125 88 51 C94.48216035 50.43350748 96.62211983 47.86536973 100.703125 43.0859375 C103.54562032 39.26693868 105.83416282 35.2834453 108.125 31.12011719 C113.45348492 21.46223826 120.10723536 12.63092155 131 9 C134.38938339 8.59786977 137.61856056 8.49844678 141 9 C144.0625 11.4375 144.0625 11.4375 146 14 C146.33 14.33 146.66 14.66 147 15 C147.55887734 21.37120169 146.56482352 25.65888985 143 31 C141.0625 33.0625 141.0625 33.0625 139 34 C136.25 33.6875 136.25 33.6875 134 33 C133.1875 30.875 133.1875 30.875 133 28 C134.62126675 25.96302383 136.28859531 23.96185416 138 22 C138 20.68 138 19.36 138 18 C131.96718703 18.30164065 128.23782523 20.94215963 124 25 C117.40909987 32.98260414 113.68898011 40.11504042 113.6015625 50.546875 C113.81555098 53.03085656 113.81555098 53.03085656 115.30859375 54.796875 C118.35927288 56.96687308 121.48531576 56.57163141 125 56 C140.21264871 51.94472411 148.71585112 40.80286819 157.27172852 28.50878906 C162.86026385 20.56297227 169.26950558 12.6537712 179 10 C183.85230602 9.2683698 186.88336618 9.27076975 191.0625 12 C193.06707814 15.10386292 193.7414834 17.18173234 193.4765625 20.890625 C191.60023224 29.19569337 184.61769719 34.9243136 177.8359375 39.44140625 C173.07224527 42.26090607 168.31125719 44.0038021 162.96875 45.421875 C161.01566301 45.82459387 161.01566301 45.82459387 160 47 C159.85363946 50.36629251 159.92806521 52.78419562 161 56 C173.59279611 56.72341595 182.52278229 53.4328962 192 45 C198.51658736 38.58550017 202.77348131 31.55740436 207 23.5 C211.23913439 15.41854516 215.57798522 8.53043841 222 2 C225.875 3.875 225.875 3.875 227 5 C227.02116556 6.89582965 226.99008145 8.79228148 226.9375 10.6875 C226.88527921 16.68636306 227.54731407 22.29819336 228.48828125 28.2109375 C229.41958057 35.10681794 229.68040425 42.05299765 230 49 C238.95568819 45.76729045 244.04600671 38.99530903 249.3359375 31.35546875 C251 29 251 29 253 27 C255.125 27.375 255.125 27.375 257 28 C257.69140625 29.66796875 257.69140625 29.66796875 258 32 C250.90156323 46.80919876 239.10995894 56.15876987 224 62 C220.52629135 63.11781256 217.20178743 63.19951278 213.5625 63.25 C212.45003906 63.27578125 211.33757812 63.3015625 210.19140625 63.328125 C206.64160467 62.96315152 204.80387393 62.17796378 202 60 C201.67 59.01 201.34 58.02 201 57 C202.2265625 55.46875 202.2265625 55.46875 204 54 C206.0859375 54.03125 206.0859375 54.03125 208.375 54.5 C211.64274411 54.98351986 212.78301541 55.08771717 215.9375 53.8125 C218.93440317 51.17885782 219.89349678 49.14177712 220.265625 45.15234375 C220.2303143 37.88716723 219.59187938 31.09239117 218 24 C217.34 24 216.68 24 216 24 C215.6596875 24.73863281 215.319375 25.47726563 214.96875 26.23828125 C207.21678185 42.46381033 196.46628783 56.899754 179.1875 63.3125 C172.18965139 65.48607419 165.10341616 66.37677234 158.0625 63.875 C154.46890577 61.67484027 152.90745062 59.73860322 151 56 C151 54.68 151 53.36 151 52 C150.10539063 52.67546875 149.21078125 53.3509375 148.2890625 54.046875 C130.48387487 67.2759861 130.48387487 67.2759861 119 66 C112.2958727 64.63434444 108.92225401 62.58624056 105 57 C104.34 56.34 103.68 55.68 103 55 C102.278125 55.61875 101.55625 56.2375 100.8125 56.875 C96.06095498 60.46505624 92.06011658 61.53820213 86.15234375 61.37109375 C84 61 84 61 81.0625 59 C78.50757024 55.28373852 77.82279727 52.41318533 77 48 C76.2575 48.495 76.2575 48.495 75.5 49 C71.93296278 50.42681489 68.74126505 50.67251361 65 50 C61.82611409 48.58774379 58.91268812 46.88785341 56 45 C55.7525 45.55945313 55.505 46.11890625 55.25 46.6953125 C50.86222059 54.78528078 43.42936529 61.40141714 35 65 C30.25800016 65.86936664 28.74641301 65.47883099 24.6875 62.875 C21.91700176 59.91121119 20.90906278 57.90896996 20 54 C19.57589844 54.47050781 19.15179688 54.94101563 18.71484375 55.42578125 C13.60963205 60.84515982 9.02219783 64.03235045 1.375 64.4375 C-2.85584698 64.30032237 -5.04846865 63.13600206 -8 60 C-9.76716971 56.46566058 -9.51257258 52.85902343 -9 49 C-6.64994558 42.35029443 -2.59687251 36.81612525 1.7421875 31.32421875 C3.27063304 29.02604058 3.27063304 29.02604058 2.6953125 26.20703125 C2.46585937 25.47871094 2.23640625 24.75039062 2 24 C0.02 23.34 -1.96 22.68 -4 22 C-4.49628906 22.89460938 -4.99257812 23.78921875 -5.50390625 24.7109375 C-9.63414254 32.09067534 -13.87656358 39.25119754 -19 46 C-19.52980469 46.70769531 -20.05960938 47.41539062 -20.60546875 48.14453125 C-27.57405189 56.8014647 -37.95538991 62.64547997 -48.5625 65.75 C-55.33346201 66.44445764 -60.9519676 66.37345807 -67 63 C-71.05394981 58.94605019 -72.73209775 55.14321799 -73.4375 49.5 C-72.9949773 36.4209958 -64.18508346 24.61674496 -55 16 C-49.64098772 11.67034256 -44.23796137 8.5560816 -37.1875 8.9375 C-34.0591359 9.49535514 -32.99686586 10.0025226 -30.4375 12.0625 C-28.59726085 15.8229887 -28.24677476 18.93879586 -29 23 C-33.1348837 32.42753484 -40.88858361 38.55321872 -50 43 C-53.95352624 44.50766113 -57.93916751 45.81384618 -62 47 C-62.16681109 49.91652174 -62.16681109 49.91652174 -62 53 C-59.58124153 55.41875847 -58.88866956 55.32178129 -55.5625 55.375 C-44.11422434 55.06202556 -36.78633183 50.01376764 -29 42 C-28.37351563 41.38253906 -27.74703125 40.76507813 -27.1015625 40.12890625 C-23.2945998 36.12384369 -20.41746726 31.67795347 -17.625 26.9375 C-17.10558838 26.07088745 -17.10558838 26.07088745 -16.57568359 25.18676758 C-13.63194384 19.98320956 -12.87613338 15.35346582 -13.1875 9.4375 C-12.95633116 5.19940466 -11.64021479 3.2614418 -9 0 C-5.93109813 -1.53445094 -3.29905734 -0.54984289 0 0 Z " fill="#C976CB" transform="translate(203,198)"/>
<path d="M0 0 C6.39728239 0.11822493 11.80506555 4.26843487 16.2578125 8.546875 C21.0625 13.87677126 21.0625 13.87677126 21.0625 16.4375 C21.7225 16.4375 22.3825 16.4375 23.0625 16.4375 C24.04600025 18.51879104 25.02414458 20.60261359 26 22.6875 C26.54527344 23.84765625 27.09054688 25.0078125 27.65234375 26.203125 C29.95562626 31.48600012 30.21720923 36.02107043 30.1875 41.75 C30.19136719 42.48412109 30.19523437 43.21824219 30.19921875 43.97460938 C30.19278182 47.60182114 30.03069444 50.57077373 29.1796875 54.13671875 C28.67665385 57.6547407 28.67665385 57.6547407 31.5625 60.28125 C32.71055017 61.19067542 33.87835132 62.07560344 35.0625 62.9375 C36.21114712 63.81926328 37.35696547 64.70472314 38.5 65.59375 C39.08587891 66.04911133 39.67175781 66.50447266 40.27539062 66.97363281 C46.20693919 71.83231659 50.96855241 77.58606575 55.5625 83.6875 C56.12348389 84.42605225 56.68446777 85.16460449 57.26245117 85.92553711 C61.51503221 91.5790263 65.4478119 97.35167968 69.0625 103.4375 C69.03929687 102.45007813 69.01609375 101.46265625 68.9921875 100.4453125 C68.97414063 99.16398437 68.95609375 97.88265625 68.9375 96.5625 C68.91429687 95.28632813 68.89109375 94.01015625 68.8671875 92.6953125 C69.0625 89.4375 69.0625 89.4375 71.0625 87.4375 C73.6875 87.8125 73.6875 87.8125 76.0625 88.4375 C77.21581933 92.82647818 78.35452083 97.21891041 79.48046875 101.61499023 C79.86459927 103.10655744 80.25254325 104.5971484 80.64453125 106.08666992 C85.72426502 125.41427942 85.72426502 125.41427942 82.875 132.3125 C79.6937398 136.04225334 77.3515755 137.30414736 72.4375 137.8125 C68.05697489 137.6478186 64.05312965 136.46972659 59.87109375 135.22265625 C57.16839158 134.46710251 54.51585142 133.96166843 51.75 133.5 C47.43245819 132.65436681 44.36580092 131.48670085 41.0625 128.4375 C40 125.375 40 125.375 40.0625 122.4375 C41 120.5625 41 120.5625 43.0625 119.4375 C49.5753931 118.85599169 55.69296035 120.12612419 62.0625 121.4375 C51.40981376 101.66736759 38.35080146 82.95067281 21.0625 68.4375 C20.56621094 68.82421875 20.06992188 69.2109375 19.55859375 69.609375 C6.76163961 79.41956375 -5.70349145 84.05594643 -21.9375 82.4375 C-31.25706792 80.40206063 -39.58586626 75.46495061 -44.9375 67.4375 C-47.42468114 62.96057395 -47.47785266 58.43354758 -46.9375 53.4375 C-45.13719047 47.69901338 -41.14162998 44.21974018 -35.9375 41.4375 C-30.2574116 39.63880534 -25.5308529 39.20569424 -19.625 39.6875 C-18.87935791 39.74341309 -18.13371582 39.79932617 -17.36547852 39.85693359 C-15.2203806 40.03010133 -13.07935386 40.22835922 -10.9375 40.4375 C-9.46023437 40.57285156 -9.46023437 40.57285156 -7.953125 40.7109375 C-0.62158118 41.71069348 5.8002334 44.70682445 12.4609375 47.78125 C15.30533872 49.08930435 18.14338047 50.31042682 21.0625 51.4375 C23.66960933 40.64873051 23.15767589 29.30045093 18.0625 19.4375 C17.5675 17.9525 17.5675 17.9525 17.0625 16.4375 C16.2271875 16.50710937 16.2271875 16.50710937 15.375 16.578125 C8.53907463 16.90144579 3.63741195 15.53688922 -1.58203125 11.01171875 C-3 9.5 -3 9.5 -4.9375 6.4375 C-4.74449356 2.09485512 -4.35316699 0.64834402 0 0 Z " fill="#731F78" transform="translate(89.9375,197.5625)"/>
<path d="M0 0 C4.45047911 3.622483 8.10554658 7.78531076 9.09375 13.5625 C9.43125781 23.01271861 5.91795074 30.91345679 -0.3125 38 C-5.91686367 43.12578879 -14.809879 47.73537981 -22.3125 49.1875 C-22.828125 48.32125 -23.34375 47.455 -23.875 46.5625 C-27.62153337 40.96255789 -32.99797536 36.55544674 -39.3125 34.1875 C-43.06323204 33.93605688 -43.06323204 33.93605688 -46.3125 34.1875 C-47.2718157 36.38264873 -47.2718157 36.38264873 -47.3125 39.1875 C-44.08825515 44.22538258 -41.11369627 46.35045451 -35.3125 48.1875 C-33.7710202 48.21928309 -32.22927339 48.23975566 -30.6875 48.25 C-28.3984375 48.41796875 -28.3984375 48.41796875 -26.3125 49.1875 C-21.42318229 55.64093594 -20.13167012 62.66507386 -20.125 70.5625 C-20.11275391 71.31789063 -20.10050781 72.07328125 -20.08789062 72.8515625 C-20.07677328 77.09097819 -20.36198178 80.31730179 -22.3125 84.1875 C-23.3025 83.6925 -23.3025 83.6925 -24.3125 83.1875 C-24.209375 82.28 -24.10625 81.3725 -24 80.4375 C-23.97065281 77.08825331 -23.97065281 77.08825331 -26.37890625 75.15625 C-29.63246755 72.97276811 -32.88440128 71.68344633 -36.5625 70.4375 C-64.01202694 60.56566709 -64.01202694 60.56566709 -71.25 49.125 C-74.05075554 41.21906982 -73.33413047 32.38900009 -69.875 24.875 C-61.34264434 9.9681234 -46.1918966 2.27677016 -30.3125 -2.8125 C-20.510874 -5.25132978 -8.9473939 -4.89574383 0 0 Z " fill="#89368D" transform="translate(133.3125,164.8125)"/>
<path d="M0 0 C2.35020498 2.35020498 2.31914802 2.91909622 2.375 6.125 C2.14676817 13.63262598 -0.87347398 18.22383634 -6.25 23.3125 C-11.90196746 28.02093116 -17.40396738 30.67360102 -24.9296875 30.4375 C-28.28537922 29.72837269 -30.91939038 27.89636096 -33.8125 26.11328125 C-37.06575647 24.45760608 -39.41846561 24.6189857 -43 25 C-43.9593157 27.19514873 -43.9593157 27.19514873 -44 30 C-40.77575515 35.03788258 -37.80119627 37.16295451 -32 39 C-30.4585202 39.03178309 -28.91677339 39.05225566 -27.375 39.0625 C-25.0859375 39.24609375 -25.0859375 39.24609375 -23 40 C-18.86908633 45.10001427 -17.85259587 50.63825119 -17 57 C-20.95409103 55.58055304 -24.90027908 54.14132915 -28.84082031 52.68481445 C-30.17711914 52.19388662 -31.51529915 51.70804368 -32.85546875 51.2277832 C-53.99588571 43.64033565 -53.99588571 43.64033565 -59 34 C-60.01741071 29.20047557 -59.83885487 24.82827343 -57.78125 20.34375 C-50.15484687 8.68830371 -38.26900317 1.61881905 -25 -2 C-16.86611827 -3.62677635 -7.14483953 -4.88857441 0 0 Z " fill="#FDFBFD" transform="translate(130,174)"/>
<path d="M0 0 C9.51164254 0.10338742 21.94558247 2.19558247 28.9375 9.1875 C18.23146653 13.11246153 6.88753273 15.71033961 -4.0625 11.1875 C-6 10 -6 10 -7.0625 8.1875 C-7.3125 4.5625 -7.3125 4.5625 -7.0625 1.1875 C-5.238652 -0.636348 -2.45118166 0.01407108 0 0 Z " fill="#F9F5F9" transform="translate(69.0625,248.8125)"/>
<path d="M0 0 C2 2 2 2 2.375 4.75 C1.89770948 8.88651785 0.74993369 10.88823293 -2 14 C-5.0625 15.0625 -5.0625 15.0625 -8 15 C-9.875 14 -9.875 14 -11 12 C-11.54763378 7.77539655 -11.473273 5.72568527 -9.125 2.125 C-5.82301606 -1.17698394 -4.41952982 -1.2153707 0 0 Z " fill="#D181D3" transform="translate(312,180)"/>
<path d="M0 0 C1.2065625 0.0309375 1.2065625 0.0309375 2.4375 0.0625 C2.51355469 0.66191406 2.58960937 1.26132813 2.66796875 1.87890625 C3.70337297 4.81693142 5.09784404 5.43301423 7.75 7 C11.40536542 9.29333436 14.03047426 11.39963474 16.4375 15.0625 C16.4375 15.3925 16.4375 15.7225 16.4375 16.0625 C9.32001678 16.57089166 4.27348099 15.38035086 -1.2109375 10.63671875 C-2.625 9.125 -2.625 9.125 -4.5625 6.0625 C-4.38676257 2.10840783 -4.17647108 0.10186515 0 0 Z " fill="#88368C" transform="translate(89.5625,197.9375)"/>
<path d="M0 0 C-0.32353021 5.33824843 -3.27249735 8.47333263 -7 12 C-10.51739 14.74109104 -13.51135742 16.84493306 -18 17.3125 C-18.66 17.209375 -19.32 17.10625 -20 17 C-18.8439257 10.18524625 -12.38680937 4.84772098 -7 1 C-4.53721199 -0.231394 -2.7204945 -0.07159196 0 0 Z " fill="#FCF1FC" transform="translate(388,216)"/>
<path d="M0 0 C-0.49232674 4.26683178 -2.9404771 7.18220013 -6 10 C-14.55 16 -14.55 16 -19 16 C-17.94513677 9.86261395 -12.77113085 5.06082243 -7.875 1.5 C-4.90864742 -0.04766221 -3.28662965 -0.38666231 0 0 Z " fill="#FCFBFC" transform="translate(165,217)"/>
</svg>
